<svg xmlns="http://www.w3.org/2000/svg" xmlns:xlink="http://www.w3.org/1999/xlink" width="1080" zoomAndPan="magnify" viewBox="0 0 810 862.499974" height="1150" preserveAspectRatio="xMidYMid meet" version="1.0"><defs><clipPath id="4a342f1e96"><path d="M 32.015625 57.082031 L 786.078125 57.082031 L 786.078125 813 L 32.015625 813 Z M 32.015625 57.082031 " clip-rule="nonzero"/></clipPath></defs><g clip-path="url(#4a342f1e96)"><path fill="#6d30db" d="M 216.484375 127.167969 L 624.136719 127.167969 L 624.136719 70.5625 C 624.136719 65.621094 626.796875 61.386719 631.25 59.238281 C 635.703125 57.089844 640.671875 57.644531 644.539062 60.726562 L 781.429688 169.660156 C 784.527344 172.125 786.171875 175.535156 786.171875 179.5 C 786.171875 183.460938 784.527344 186.871094 781.429688 189.335938 L 644.539062 298.273438 C 640.671875 301.351562 635.703125 301.90625 631.25 299.761719 C 626.796875 297.613281 624.136719 293.378906 624.136719 288.433594 L 624.136719 231.828125 L 216.484375 231.828125 C 172.796875 231.828125 136.675781 267.949219 136.675781 311.636719 L 136.675781 483.335938 C 136.675781 493.71875 128.207031 502.191406 117.820312 502.191406 L 50.871094 502.191406 C 40.488281 502.191406 32.015625 493.71875 32.015625 483.335938 L 32.015625 311.636719 C 32.015625 210.179688 115.027344 127.167969 216.484375 127.167969 Z M 786.171875 558.410156 L 786.171875 386.710938 C 786.171875 376.328125 777.703125 367.855469 767.320312 367.855469 L 700.367188 367.855469 C 689.984375 367.855469 681.515625 376.328125 681.515625 386.710938 L 681.515625 558.410156 C 681.515625 602.101562 645.394531 638.21875 601.707031 638.21875 L 194.050781 638.21875 L 194.050781 581.613281 C 194.050781 576.667969 191.394531 572.433594 186.9375 570.285156 C 182.484375 568.140625 177.515625 568.695312 173.648438 571.773438 L 36.761719 680.710938 C 33.660156 683.179688 32.015625 686.585938 32.015625 690.550781 C 32.015625 694.511719 33.660156 697.921875 36.761719 700.386719 L 173.648438 809.324219 C 177.515625 812.402344 182.484375 812.957031 186.9375 810.8125 C 191.394531 808.664062 194.050781 804.429688 194.050781 799.484375 L 194.050781 742.878906 L 601.703125 742.878906 C 703.164062 742.878906 786.171875 659.867188 786.171875 558.410156 Z M 786.171875 558.410156 " fill-opacity="1" fill-rule="evenodd"/></g></svg>