<svg xmlns="http://www.w3.org/2000/svg" xmlns:xlink="http://www.w3.org/1999/xlink" width="794" zoomAndPan="magnify" viewBox="0 0 595.5 700.499978" height="934" preserveAspectRatio="xMidYMid meet" version="1.0"><defs><clipPath id="24c69a2d6b"><path d="M 0 0.0429688 L 595 0.0429688 L 595 699.957031 L 0 699.957031 Z M 0 0.0429688 " clip-rule="nonzero"/></clipPath><clipPath id="e0663ddf32"><path d="M 0 0.0429688 L 595 0.0429688 L 595 699.957031 L 0 699.957031 Z M 0 0.0429688 " clip-rule="nonzero"/></clipPath><clipPath id="ec5a07f365"><path d="M 30.015625 75.761719 L 565 75.761719 L 565 640.25 L 30.015625 640.25 Z M 30.015625 75.761719 " clip-rule="nonzero"/></clipPath><clipPath id="76640ed99e"><rect x="0" width="595" y="0" height="700"/></clipPath></defs><g clip-path="url(#24c69a2d6b)"><path fill="#ffffff" d="M 0 0.0429688 L 595 0.0429688 L 595 699.957031 L 0 699.957031 Z M 0 0.0429688 " fill-opacity="1" fill-rule="nonzero"/><g transform="matrix(1, 0, 0, 1, 0, -0.000000000000002651)"><g clip-path="url(#76640ed99e)"><g clip-path="url(#e0663ddf32)"><path fill="#ffffff" d="M 0 0.0429688 L 595.226562 0.0429688 L 595.226562 700.21875 L 0 700.21875 Z M 0 0.0429688 " fill-opacity="1" fill-rule="nonzero"/></g><g clip-path="url(#ec5a07f365)"><path fill="#6d30db" d="M 44.160156 75.808594 C 43.238281 75.824219 42.328125 75.925781 41.429688 76.121094 C 40.527344 76.3125 39.65625 76.59375 38.808594 76.957031 C 37.960938 77.324219 37.160156 77.765625 36.402344 78.289062 C 35.644531 78.8125 34.941406 79.402344 34.300781 80.0625 C 33.65625 80.722656 33.085938 81.441406 32.585938 82.214844 C 32.082031 82.984375 31.660156 83.800781 31.320312 84.65625 C 30.976562 85.511719 30.722656 86.390625 30.554688 87.296875 C 30.386719 88.203125 30.304688 89.117188 30.316406 90.035156 L 30.316406 147.5 C 30.089844 148.945312 30.089844 150.390625 30.316406 151.839844 L 30.316406 454.039062 C 30.097656 455.464844 30.097656 456.894531 30.316406 458.320312 L 30.316406 626.09375 C 30.304688 627.027344 30.382812 627.949219 30.554688 628.867188 C 30.722656 629.78125 30.984375 630.671875 31.332031 631.539062 C 31.675781 632.402344 32.105469 633.222656 32.617188 634.003906 C 33.128906 634.78125 33.710938 635.503906 34.367188 636.167969 C 35.019531 636.832031 35.734375 637.425781 36.503906 637.945312 C 37.277344 638.46875 38.09375 638.910156 38.953125 639.269531 C 39.8125 639.628906 40.699219 639.898438 41.613281 640.082031 C 42.527344 640.265625 43.449219 640.359375 44.378906 640.359375 C 45.3125 640.359375 46.234375 640.265625 47.148438 640.082031 C 48.0625 639.898438 48.949219 639.628906 49.808594 639.269531 C 50.667969 638.910156 51.484375 638.46875 52.257812 637.945312 C 53.027344 637.425781 53.742188 636.832031 54.394531 636.167969 C 55.050781 635.503906 55.632812 634.78125 56.144531 634.003906 C 56.65625 633.222656 57.082031 632.402344 57.429688 631.539062 C 57.777344 630.671875 58.039062 629.78125 58.207031 628.867188 C 58.378906 627.949219 58.457031 627.027344 58.445312 626.09375 L 58.445312 466.066406 C 135.222656 430.746094 212.402344 448.933594 294.0625 469.695312 C 378.441406 491.148438 467.589844 514.132812 557.035156 468.648438 C 558.195312 468.058594 559.253906 467.324219 560.210938 466.441406 C 561.164062 465.554688 561.984375 464.558594 562.660156 463.449219 C 563.339844 462.339844 563.855469 461.15625 564.207031 459.902344 C 564.558594 458.648438 564.730469 457.371094 564.726562 456.070312 L 564.726562 149.585938 C 564.726562 148.988281 564.6875 148.390625 564.609375 147.796875 C 564.535156 147.203125 564.417969 146.617188 564.269531 146.039062 C 564.117188 145.460938 563.929688 144.894531 563.703125 144.339844 C 563.480469 143.78125 563.222656 143.246094 562.929688 142.722656 C 562.636719 142.199219 562.3125 141.699219 561.957031 141.21875 C 561.597656 140.738281 561.214844 140.28125 560.796875 139.851562 C 560.382812 139.417969 559.941406 139.015625 559.476562 138.640625 C 559.011719 138.265625 558.523438 137.921875 558.011719 137.609375 C 557.5 137.296875 556.972656 137.015625 556.425781 136.773438 C 555.882812 136.527344 555.320312 136.316406 554.75 136.144531 C 554.175781 135.96875 553.59375 135.832031 553.003906 135.730469 C 552.414062 135.632812 551.820312 135.570312 551.222656 135.546875 C 550.625 135.523438 550.027344 135.539062 549.429688 135.589844 C 548.835938 135.640625 548.242188 135.730469 547.660156 135.859375 C 547.074219 135.988281 546.5 136.152344 545.9375 136.351562 C 545.371094 136.554688 544.824219 136.789062 544.289062 137.0625 C 464.976562 177.394531 385.363281 157.417969 300.984375 135.960938 C 223.039062 116.144531 141 97.5 58.445312 130.25 L 58.445312 90.035156 C 58.457031 89.097656 58.371094 88.164062 58.195312 87.242188 C 58.023438 86.320312 57.757812 85.421875 57.402344 84.554688 C 57.046875 83.683594 56.605469 82.855469 56.085938 82.074219 C 55.566406 81.292969 54.972656 80.570312 54.304688 79.90625 C 53.640625 79.242188 52.914062 78.652344 52.132812 78.136719 C 51.347656 77.617188 50.519531 77.183594 49.648438 76.832031 C 48.777344 76.480469 47.878906 76.21875 46.957031 76.042969 C 46.03125 75.871094 45.101562 75.792969 44.160156 75.808594 Z M 142.273438 139.148438 C 145.359375 139.007812 148.46875 139.28125 151.558594 139.257812 L 151.558594 235.230469 C 183.988281 234.582031 216.417969 239.8125 248.847656 246.988281 L 248.847656 152.441406 C 263.832031 155.882812 278.792969 159.328125 294.0625 163.210938 C 311.230469 167.574219 328.664062 171.6875 346.195312 175.40625 L 346.195312 270.554688 C 378.625 277.753906 411.054688 282.957031 443.484375 282.308594 L 443.484375 186.777344 C 474.324219 186.375 505.417969 181.34375 536.597656 168.980469 L 536.597656 260.609375 C 505.578125 275.4375 474.503906 281.691406 443.484375 282.308594 L 443.484375 379.65625 C 474.507812 379.035156 505.574219 372.726562 536.597656 357.902344 L 536.597656 446.125 C 505.714844 460.335938 474.765625 465.597656 443.484375 465.792969 L 443.484375 379.65625 C 411.054688 380.300781 378.625 375.042969 346.195312 367.84375 L 346.195312 270.554688 C 313.765625 263.351562 281.28125 254.242188 248.847656 247.042969 L 248.847656 344.332031 C 281.28125 351.53125 313.765625 360.699219 346.195312 367.898438 L 346.195312 453.101562 C 331.222656 449.734375 316.242188 446.324219 300.984375 442.445312 C 283.8125 438.082031 266.378906 433.964844 248.847656 430.25 L 248.847656 344.332031 C 216.417969 337.132812 183.988281 331.875 151.558594 332.519531 L 151.558594 235.230469 C 120.535156 235.847656 89.46875 242.160156 58.445312 256.984375 L 58.445312 159.53125 C 86.273438 146.726562 114.144531 140.441406 142.273438 139.148438 Z M 151.558594 332.574219 L 151.558594 418.933594 C 120.71875 419.34375 89.625 424.363281 58.445312 436.734375 L 58.445312 354.273438 C 89.46875 339.449219 120.535156 333.195312 151.558594 332.574219 Z M 151.558594 332.574219 " fill-opacity="1" fill-rule="nonzero"/></g></g></g></g></svg>