<svg xmlns="http://www.w3.org/2000/svg" xmlns:xlink="http://www.w3.org/1999/xlink" width="1080" zoomAndPan="magnify" viewBox="0 0 810 862.499974" height="1150" preserveAspectRatio="xMidYMid meet" version="1.0"><defs><clipPath id="5335a0ecfc"><path d="M 0.234375 0 L 809.765625 0 L 809.765625 862 L 0.234375 862 Z M 0.234375 0 " clip-rule="nonzero"/></clipPath><clipPath id="041aed2b01"><path d="M 238 36.730469 L 575 36.730469 L 575 225 L 238 225 Z M 238 36.730469 " clip-rule="nonzero"/></clipPath><clipPath id="f9eaa97a99"><path d="M 46.269531 350 L 392 350 L 392 795 L 46.269531 795 Z M 46.269531 350 " clip-rule="nonzero"/></clipPath><clipPath id="9df48f95e5"><path d="M 428 350 L 763.605469 350 L 763.605469 676 L 428 676 Z M 428 350 " clip-rule="nonzero"/></clipPath></defs><g clip-path="url(#5335a0ecfc)"><path fill="#ffffff" d="M 0.234375 0 L 809.765625 0 L 809.765625 862 L 0.234375 862 Z M 0.234375 0 " fill-opacity="1" fill-rule="nonzero"/><path fill="#ffffff" d="M 0.234375 0 L 809.765625 0 L 809.765625 862 L 0.234375 862 Z M 0.234375 0 " fill-opacity="1" fill-rule="nonzero"/></g><g clip-path="url(#041aed2b01)"><path fill="#6d30db" d="M 347.566406 47.066406 C 376.453125 36.730469 408.09375 33.976562 438.292969 39.585938 C 462.527344 44.238281 485.675781 54.195312 505.820312 68.398438 C 524.648438 81.789062 540.339844 99.378906 552.117188 119.21875 C 563.84375 139.285156 570.945312 161.800781 574.535156 184.722656 C 574.457031 186.519531 576.101562 189.675781 573.421875 190.359375 C 532.480469 208.832031 488.203125 219.421875 443.5 222.882812 C 412.539062 226.09375 381.253906 225.160156 350.398438 221.242188 C 311.957031 216.261719 273.695312 206.863281 238.796875 189.652344 C 239.328125 177.320312 242.839844 165.363281 246.148438 153.5625 C 252.011719 135.542969 259.972656 118.003906 271.800781 103.09375 C 290.957031 77.644531 317.644531 58.058594 347.566406 47.066406 Z M 347.566406 47.066406 " fill-opacity="1" fill-rule="nonzero"/></g><path fill="#6d30db" d="M 157.066406 84.597656 C 184.109375 84.445312 209.707031 97.128906 229.042969 115.453125 C 222.089844 128.441406 216.128906 141.988281 212.183594 156.242188 C 200.457031 151.011719 188.453125 145.398438 179.382812 136.050781 C 166.089844 122.351562 158.660156 103.472656 157.066406 84.597656 Z M 157.066406 84.597656 " fill-opacity="1" fill-rule="nonzero"/><path fill="#6d30db" d="M 108.773438 196.425781 C 122.214844 182.375 141.222656 174.261719 160.429688 172.390625 C 176.222656 170.597656 207.257812 180.351562 207.257812 180.351562 C 206.019531 190.054688 205.386719 199.835938 205.359375 209.640625 C 174.65625 225.917969 133.589844 221.316406 108.773438 196.425781 Z M 108.773438 196.425781 " fill-opacity="1" fill-rule="nonzero"/><path fill="#6d30db" d="M 463.1875 251.871094 C 502.332031 247.171875 541.226562 237.792969 577.261719 221.59375 C 577.210938 246.335938 572.308594 271.253906 562.277344 293.921875 C 552.546875 315.027344 538.851562 335.242188 519.214844 348.257812 C 510.417969 354.195312 500.007812 358.113281 489.316406 358.0625 C 470.136719 358.242188 451.789062 351.769531 433.972656 345.453125 C 420.628906 340.929688 406.199219 339.085938 392.296875 341.863281 C 368.289062 346.566406 345.847656 360.160156 320.777344 358.339844 C 298.234375 355.914062 280.117188 339.714844 267.175781 322.152344 C 246.910156 293.417969 236.546875 258.0625 236.496094 223.011719 C 251.53125 228.367188 266.34375 234.457031 281.757812 238.628906 C 340.566406 254.878906 402.609375 259.476562 463.1875 251.871094 Z M 306.652344 278.558594 C 302.960938 279.621094 300.964844 283.460938 301.320312 287.152344 C 301.800781 298.597656 307.992188 309.71875 317.542969 316.0625 C 325.554688 321.546875 335.789062 322.785156 345.242188 321.46875 C 355.148438 320.054688 365.03125 315.984375 372.105469 308.707031 C 375.847656 305.042969 377.261719 298.246094 372.839844 294.53125 C 366.898438 289.804688 359.242188 288.160156 352.242188 285.609375 C 337.558594 281.261719 322.09375 276.359375 306.652344 278.558594 Z M 488.8125 278.761719 C 474.382812 280.429688 460.230469 284.394531 447.035156 290.488281 C 443.550781 292.253906 439.554688 294.175781 438.015625 298.015625 C 436.320312 302.136719 438.949219 306.355469 441.804688 309.214844 C 450.222656 317.199219 461.820312 321.34375 473.292969 321.824219 C 490.125 322.457031 506.832031 310.550781 510.722656 293.972656 C 511.960938 289.25 513.351562 282.046875 507.839844 279.492188 C 501.800781 277.167969 495.078125 278.355469 488.8125 278.761719 Z M 488.8125 278.761719 " fill-opacity="1" fill-rule="nonzero"/><g clip-path="url(#f9eaa97a99)"><path fill="#6d30db" d="M 173.292969 375.628906 C 191.765625 366.453125 210.972656 358.921875 229.875 350.761719 C 237.609375 393.117188 255.90625 433.324219 281.984375 467.515625 C 284.410156 470.726562 287.292969 473.554688 290.046875 476.511719 C 293.257812 479.976562 294.394531 485.003906 292.675781 489.402344 C 291.96875 491.195312 290.855469 492.789062 289.214844 493.875 C 253.628906 515.960938 217.894531 537.773438 182.1875 559.683594 C 176.578125 563.421875 170.234375 566.457031 165.785156 571.6875 C 160.25 581.238281 163.738281 595.367188 173.820312 600.472656 C 178.167969 600.320312 181.78125 597.3125 185.574219 595.441406 C 217.972656 576.1875 249.585938 555.613281 282.0625 536.457031 C 288.457031 532.667969 296.695312 534.460938 300.964844 540.550781 C 307.433594 549.777344 313.753906 559.101562 320.5 568.125 C 334.777344 587.003906 348.019531 606.664062 362.351562 625.515625 C 371.09375 637.648438 380.066406 649.625 388.835938 661.757812 C 393.941406 668.808594 391.488281 678.738281 383.757812 682.730469 C 364.398438 692.664062 344.8125 702.167969 325.65625 712.527344 C 288 731.28125 250.722656 750.839844 213.523438 770.476562 C 196.894531 779.777344 179.761719 788.949219 161.007812 793.09375 C 137.507812 797.847656 112.109375 793.347656 91.839844 780.457031 C 66.289062 764.007812 49.257812 735.246094 46.855469 704.972656 C 45.1875 686.066406 48.320312 667.214844 49.40625 648.363281 C 52.464844 610.53125 56.054688 572.722656 61.058594 535.09375 C 64.949219 509.769531 69.902344 484.222656 80.796875 460.820312 C 88.882812 442.421875 100.886719 425.84375 115.621094 412.222656 C 132.222656 396.375 152.695312 385.355469 173.292969 375.628906 Z M 173.292969 375.628906 " fill-opacity="1" fill-rule="nonzero"/></g><g clip-path="url(#9df48f95e5)"><path fill="#6d30db" d="M 582.066406 350.960938 C 604.65625 358.949219 626.214844 369.460938 647.898438 379.542969 C 669 389.476562 688.964844 402.464844 704.8125 419.753906 C 720.480469 436.710938 732.382812 457.105469 739.40625 479.117188 C 747.191406 503.859375 751.335938 529.558594 754.394531 555.261719 C 757.730469 580 760.332031 604.820312 762.203125 629.710938 C 762.632812 634.917969 763.113281 640.148438 763.515625 645.355469 C 764.855469 661.757812 751.867188 675.808594 735.390625 675.832031 C 634.65625 675.933594 533.921875 675.808594 433.1875 675.882812 C 436.144531 666.253906 435.160156 655.085938 428.410156 647.25 C 439.65625 640.226562 451.484375 634.160156 462.855469 627.335938 C 487.144531 612.375 511.65625 596.882812 530.988281 575.628906 C 545.621094 560.214844 556.386719 541.460938 563.210938 521.421875 C 575.847656 483.386719 574.535156 442.042969 567.179688 403.097656 C 573.875 386.242188 579.160156 368.855469 582.066406 350.960938 Z M 582.066406 350.960938 " fill-opacity="1" fill-rule="nonzero"/></g><path fill="#6d30db" d="M 340.238281 376.386719 C 345.824219 371.253906 354.691406 370.851562 361.136719 374.617188 C 370.941406 380.152344 376.933594 390.714844 379.105469 401.53125 C 381.835938 415.785156 380.066406 430.519531 382.871094 444.773438 C 384.136719 449.21875 386.613281 453.667969 390.832031 455.890625 C 398.742188 460.164062 408.042969 459.707031 416.710938 459.203125 C 436.929688 457.40625 456.285156 449.371094 472.890625 437.820312 C 484.464844 429.332031 495.179688 419.652344 504.65625 408.859375 C 508.828125 404.183594 513.78125 399.054688 520.476562 398.699219 C 526.945312 398.523438 531.976562 403.90625 533.769531 409.695312 C 537.332031 420.636719 538.21875 432.210938 539.355469 443.582031 C 541.25 465.925781 540.492188 488.921875 533.265625 510.351562 C 525.027344 534.839844 508.597656 556.121094 488.054688 571.585938 C 461.367188 592.054688 431.796875 608.382812 402.835938 625.339844 C 376.148438 588.59375 348.855469 552.304688 322.625 515.230469 C 325.933594 511.363281 325.910156 506.082031 326.691406 501.355469 C 329.394531 482.175781 331.621094 462.941406 332.707031 443.609375 C 333.945312 426.5 332.628906 409.316406 333.589844 392.207031 C 333.871094 386.394531 335.585938 380.226562 340.238281 376.386719 Z M 340.238281 376.386719 " fill-opacity="1" fill-rule="nonzero"/></svg>